<?xml version="1.0" encoding="utf-8"?>
<!-- Generator: Adobe Illustrator 16.0.0, SVG Export Plug-In . SVG Version: 6.00 Build 0)  -->
<!DOCTYPE svg PUBLIC "-//W3C//DTD SVG 1.1//EN" "http://www.w3.org/Graphics/SVG/1.1/DTD/svg11.dtd">
<svg version="1.1" id="Logo_1_" xmlns="http://www.w3.org/2000/svg" xmlns:xlink="http://www.w3.org/1999/xlink" x="0px" y="0px"
	 width="545px" height="170px" viewBox="0 0 545 170" enable-background="new 0 0 545 170" xml:space="preserve">
<g id="espiritual">
	<g>
		<path fill-rule="evenodd" clip-rule="evenodd" fill="#777777" d="M9.815,155.151H39.63v-4.752H15.761v-22.315h21.321v-4.752
			H15.761V101.44H39.63v-4.837H9.815V155.151z M94.163,126.938c-1.926-0.989-4.049-1.796-6.37-2.419
			c-2.323-0.621-4.645-1.188-6.966-1.697c-2.322-0.509-4.446-1.116-6.37-1.824c-1.927-0.706-3.498-1.795-4.715-3.267
			c-1.219-1.47-1.826-3.365-1.826-5.685c0-3.564,1.16-6.279,3.482-8.146c2.321-1.866,5.352-2.8,9.089-2.8s6.682,0.891,8.834,2.673
			c2.151,1.782,3.341,3.86,3.567,6.236H99.6c-0.68-4.242-2.605-7.637-5.776-10.182c-3.172-2.546-7.518-3.818-13.038-3.818
			c-5.521,0-9.968,1.472-13.336,4.412c-3.37,2.941-5.055,6.676-5.055,11.2c0,4.526,1.132,7.977,3.397,10.353
			c2.265,2.375,4.997,3.975,8.197,4.794c3.198,0.82,6.398,1.542,9.599,2.163c3.198,0.624,5.932,1.74,8.197,3.353
			c2.264,1.611,3.397,4.017,3.397,7.212c0,3.196-1.231,5.869-3.695,8.019c-2.463,2.15-5.775,3.225-9.938,3.225
			c-4.162,0-7.291-0.891-9.386-2.673c-2.096-1.782-3.257-4.03-3.482-6.746h-6.286c0,4.412,1.812,7.921,5.437,10.521
			c3.623,2.603,8.338,3.903,14.143,3.903s10.377-1.668,13.719-5.006c3.341-3.337,5.012-7.24,5.012-11.71
			c0-2.997-0.609-5.516-1.826-7.552C97.659,129.441,96.088,127.929,94.163,126.938z M142.58,96.604h-17.923v58.548h5.946v-24.522
			h11.977c6.626,0,11.623-1.555,14.993-4.667c3.368-3.11,5.054-7.212,5.054-12.304c0-5.091-1.699-9.206-5.097-12.346
			S149.148,96.604,142.58,96.604z M142.58,125.793h-11.977V101.44h11.977c9.344,0,14.016,4.06,14.016,12.176
			C156.596,121.734,151.924,125.793,142.58,125.793z M184.882,155.151h5.945V96.604h-5.945V155.151z M250.031,124.901
			c2.661-2.97,3.992-6.858,3.992-11.667c0-4.808-1.699-8.782-5.097-11.922s-8.381-4.709-14.949-4.709h-17.923v58.548H222v-24.522
			h9.174l15.885,24.522h7.729l-16.648-24.776C243.405,129.695,247.369,127.871,250.031,124.901z M222,125.793V101.44h11.978
			c9.343,0,14.015,4.06,14.015,12.176c0,8.118-4.672,12.177-14.015,12.177H222z M279.761,155.151h5.946V96.604h-5.946V155.151z
			 M308.725,101.44H324.1v53.711h5.861V101.44h15.374v-4.837h-36.61V101.44z M405.644,135.466c0,5.205-1.388,9.065-4.162,11.582
			c-2.775,2.518-6.598,3.776-11.467,3.776c-4.871,0-8.707-1.259-11.51-3.776c-2.804-2.517-4.205-6.377-4.205-11.582V96.604h-5.945
			v38.862c0,6.676,2.023,11.724,6.073,15.146c4.048,3.423,9.244,5.133,15.587,5.133c6.341,0,11.522-1.71,15.544-5.133
			c4.021-3.423,6.031-8.471,6.031-15.146V96.604h-5.946V135.466z M456.438,96.604l-21.575,58.548h5.946l5.011-13.661h27.352
			l4.927,13.661h5.946l-21.49-58.548H456.438z M447.52,136.738l11.977-32.753l11.893,32.753H447.52z M513.35,150.569V96.604h-5.945
			v58.548h27.267v-4.582H513.35z"/>
	</g>
</g>
<g id="sobriedade">
	<g>
		<path fill-rule="evenodd" clip-rule="evenodd" fill="#777777" d="M41.858,47.177c-1.926-0.989-4.05-1.795-6.371-2.418
			c-2.322-0.622-4.644-1.188-6.966-1.697s-4.445-1.116-6.37-1.824c-1.926-0.707-3.497-1.795-4.715-3.267
			c-1.218-1.471-1.826-3.365-1.826-5.686c0-3.563,1.16-6.279,3.483-8.146c2.321-1.867,5.351-2.8,9.089-2.8
			c3.737,0,6.681,0.891,8.834,2.673c2.151,1.781,3.34,3.86,3.567,6.236h6.71c-0.679-4.243-2.605-7.637-5.775-10.183
			c-3.173-2.545-7.518-3.818-13.039-3.818s-9.968,1.472-13.336,4.412c-3.37,2.942-5.054,6.676-5.054,11.201
			c0,4.526,1.132,7.976,3.398,10.352c2.264,2.376,4.997,3.975,8.197,4.794c3.198,0.821,6.398,1.542,9.598,2.164
			c3.199,0.623,5.932,1.739,8.197,3.352c2.265,1.612,3.397,4.018,3.397,7.213c0,3.196-1.231,5.869-3.694,8.019
			c-2.464,2.15-5.776,3.224-9.938,3.224s-7.292-0.891-9.387-2.673c-2.096-1.781-3.257-4.03-3.482-6.745h-6.286
			c0,4.412,1.812,7.92,5.437,10.521c3.624,2.603,8.337,3.903,14.143,3.903c5.804,0,10.376-1.668,13.718-5.007
			c3.341-3.337,5.012-7.24,5.012-11.709c0-2.998-0.609-5.516-1.826-7.552C45.354,49.68,43.782,48.167,41.858,47.177z M91.507,16.248
			c-8.409,0-15.488,2.814-21.235,8.443c-5.748,5.629-8.622,12.77-8.622,21.425s2.874,15.797,8.622,21.425
			c5.747,5.63,12.826,8.443,21.235,8.443s15.473-2.813,21.193-8.443c5.719-5.628,8.579-12.77,8.579-21.425
			s-2.86-15.796-8.579-21.425C106.979,19.063,99.916,16.248,91.507,16.248z M108.41,64.063c-4.502,4.555-10.165,6.831-16.988,6.831
			c-6.824,0-12.486-2.276-16.988-6.831c-4.502-4.553-6.753-10.535-6.753-17.946c0-7.41,2.251-13.378,6.753-17.903
			s10.179-6.789,17.031-6.789c6.851,0,12.514,2.264,16.988,6.789c4.473,4.525,6.71,10.493,6.71,17.903
			C115.163,53.527,112.912,59.51,108.41,64.063z M162.9,45.183c7.475-1.979,11.212-6.222,11.212-12.728
			c0-4.582-1.601-8.329-4.799-11.243c-3.2-2.913-7.802-4.37-13.804-4.37h-19.791v58.549h20.726c5.662,0,10.249-1.498,13.761-4.497
			c3.511-2.998,5.267-6.478,5.267-10.438c0-3.959-1.161-7.34-3.482-10.14C169.666,47.517,166.638,45.806,162.9,45.183z
			 M141.665,21.679h13.845c3.964,0,7.051,0.963,9.259,2.885c2.209,1.924,3.313,4.497,3.313,7.722s-1.104,5.785-3.313,7.68
			c-2.208,1.896-5.295,2.842-9.259,2.842h-13.845V21.679z M166.213,67.584c-2.322,2.036-5.606,3.055-9.854,3.055h-14.694V47.644
			h13.93c4.247,0,7.658,1.033,10.236,3.097c2.576,2.066,3.864,4.88,3.864,8.443S168.534,65.548,166.213,67.584z M224.992,45.141
			c2.661-2.97,3.992-6.858,3.992-11.667c0-4.808-1.699-8.782-5.097-11.922s-8.382-4.71-14.95-4.71h-17.923v58.549h5.946V50.868
			h9.174l15.885,24.522h7.729L213.1,50.613C218.366,49.935,222.33,48.11,224.992,45.141z M196.961,46.031V21.679h11.977
			c9.344,0,14.016,4.06,14.016,12.177s-4.672,12.176-14.016,12.176H196.961z M246.992,75.391h5.945V16.842h-5.945V75.391z
			 M270.435,75.391h29.815v-4.752h-23.869V48.322h21.32V43.57h-21.32V21.679h23.869v-4.837h-29.815V75.391z M334.566,16.842h-18.008
			v58.549h18.008c9.514,0,16.932-2.504,22.255-7.51c5.322-5.006,7.984-12.147,7.984-21.425s-2.676-16.532-8.026-21.765
			C351.428,19.459,344.023,16.842,334.566,16.842z M352.532,64.402c-4.106,4.271-10.096,6.406-17.966,6.406h-12.062V22.104h12.062
			c7.87,0,13.859,2.136,17.966,6.406c4.104,4.271,6.158,10.254,6.158,17.946C358.69,54.149,356.637,60.132,352.532,64.402z
			 M399.207,16.842l-21.575,58.549h5.946l5.012-13.661h27.352l4.927,13.661h5.945l-21.49-58.549H399.207z M390.288,56.978
			l11.978-32.753l11.892,32.753H390.288z M460.451,16.842h-18.008v58.549h18.008c9.514,0,16.932-2.504,22.255-7.51
			c5.322-5.006,7.984-12.147,7.984-21.425s-2.676-16.532-8.027-21.765S469.907,16.842,460.451,16.842z M478.416,64.402
			c-4.106,4.271-10.095,6.406-17.965,6.406h-12.063V22.104h12.063c7.87,0,13.858,2.136,17.965,6.406
			c4.105,4.271,6.158,10.254,6.158,17.946C484.574,54.149,482.521,60.132,478.416,64.402z M535.2,21.679v-4.837h-29.814v58.549
			H535.2v-4.752h-23.869V48.322h21.32V43.57h-21.32V21.679H535.2z"/>
	</g>
</g>
</svg>
